<mxfile host="Electron" modified="2024-03-18T16:56:25.691Z" agent="Mozilla/5.0 (Macintosh; Intel Mac OS X 10_15_7) AppleWebKit/537.36 (KHTML, like Gecko) draw.io/24.0.4 Chrome/120.0.6099.109 Electron/28.1.0 Safari/537.36" etag="-kHip7HkxzCL6DWhklot" version="24.0.4" type="device">
  <diagram name="Page-1" id="5f0bae14-7c28-e335-631c-24af17079c00">
    <mxGraphModel dx="841" dy="765" grid="1" gridSize="10" guides="1" tooltips="1" connect="1" arrows="1" fold="1" page="1" pageScale="1" pageWidth="600" pageHeight="400" background="none" math="0" shadow="0">
      <root>
        <mxCell id="0" />
        <mxCell id="1" parent="0" />
        <mxCell id="3W5gYO6pAXKULEPotOUU-14" value="Authoritative&lt;br&gt;Zone Polygon&lt;br&gt;Model" style="rounded=0;whiteSpace=wrap;html=1;" parent="1" vertex="1">
          <mxGeometry x="30" y="500" width="340" height="110" as="geometry" />
        </mxCell>
        <mxCell id="3W5gYO6pAXKULEPotOUU-18" value="SimpleZoneAlertComputer" style="rounded=0;whiteSpace=wrap;html=1;" parent="1" vertex="1">
          <mxGeometry x="30" y="220" width="420" height="70" as="geometry" />
        </mxCell>
        <mxCell id="4Vm4h1DBtU_fKJOTUtkn-5" style="edgeStyle=orthogonalEdgeStyle;rounded=0;orthogonalLoop=1;jettySize=auto;html=1;exitX=0.5;exitY=1;exitDx=0;exitDy=0;entryX=0.5;entryY=0;entryDx=0;entryDy=0;startArrow=classic;startFill=1;" edge="1" parent="1" source="3W5gYO6pAXKULEPotOUU-23" target="4Vm4h1DBtU_fKJOTUtkn-4">
          <mxGeometry relative="1" as="geometry" />
        </mxCell>
        <mxCell id="3W5gYO6pAXKULEPotOUU-23" value="ZoneAlertService (OpenUxAS)" style="rounded=0;whiteSpace=wrap;html=1;" parent="1" vertex="1">
          <mxGeometry x="30" y="20" width="420" height="70" as="geometry" />
        </mxCell>
        <mxCell id="ruYz8rCoN398NZCThAqV-3" value="ZoneAlert Messages&lt;br&gt;CMASI" style="rounded=0;whiteSpace=wrap;html=1;" parent="1" vertex="1">
          <mxGeometry x="520" y="20" width="130" height="70" as="geometry" />
        </mxCell>
        <mxCell id="ruYz8rCoN398NZCThAqV-5" value="" style="shape=flexArrow;endArrow=classic;html=1;rounded=0;entryX=0;entryY=0.5;entryDx=0;entryDy=0;exitX=1;exitY=0.5;exitDx=0;exitDy=0;" parent="1" source="3W5gYO6pAXKULEPotOUU-23" target="ruYz8rCoN398NZCThAqV-3" edge="1">
          <mxGeometry width="50" height="50" relative="1" as="geometry">
            <mxPoint x="380" y="130" as="sourcePoint" />
            <mxPoint x="430" y="80" as="targetPoint" />
          </mxGeometry>
        </mxCell>
        <mxCell id="4Vm4h1DBtU_fKJOTUtkn-1" value="CPolygon" style="rounded=0;whiteSpace=wrap;html=1;" vertex="1" parent="1">
          <mxGeometry x="270" y="510" width="90" height="40" as="geometry" />
        </mxCell>
        <mxCell id="4Vm4h1DBtU_fKJOTUtkn-2" value="VisibilityGraph" style="rounded=0;whiteSpace=wrap;html=1;" vertex="1" parent="1">
          <mxGeometry x="270" y="560" width="90" height="40" as="geometry" />
        </mxCell>
        <mxCell id="4Vm4h1DBtU_fKJOTUtkn-6" value="" style="edgeStyle=orthogonalEdgeStyle;rounded=0;orthogonalLoop=1;jettySize=auto;html=1;" edge="1" parent="1" source="4Vm4h1DBtU_fKJOTUtkn-4" target="3W5gYO6pAXKULEPotOUU-23">
          <mxGeometry relative="1" as="geometry" />
        </mxCell>
        <mxCell id="4Vm4h1DBtU_fKJOTUtkn-4" value="&lt;div&gt;Interface&amp;nbsp;&lt;/div&gt;&lt;div&gt;&lt;br&gt;&lt;/div&gt;ZoneAlertComputer" style="rounded=0;whiteSpace=wrap;html=1;dashed=1;" vertex="1" parent="1">
          <mxGeometry x="30" y="170" width="420" height="50" as="geometry" />
        </mxCell>
        <mxCell id="4Vm4h1DBtU_fKJOTUtkn-9" value="" style="edgeStyle=orthogonalEdgeStyle;rounded=0;orthogonalLoop=1;jettySize=auto;html=1;exitX=0.232;exitY=-0.018;exitDx=0;exitDy=0;startArrow=classic;startFill=1;exitPerimeter=0;" edge="1" parent="1" source="3W5gYO6pAXKULEPotOUU-14" target="4Vm4h1DBtU_fKJOTUtkn-10">
          <mxGeometry relative="1" as="geometry">
            <mxPoint x="210" y="180" as="sourcePoint" />
            <mxPoint x="200" y="290" as="targetPoint" />
          </mxGeometry>
        </mxCell>
        <mxCell id="4Vm4h1DBtU_fKJOTUtkn-10" value="Function&lt;div&gt;Process Zone&lt;/div&gt;" style="rounded=1;whiteSpace=wrap;html=1;" vertex="1" parent="1">
          <mxGeometry x="50" y="280" width="120" height="60" as="geometry" />
        </mxCell>
        <mxCell id="4Vm4h1DBtU_fKJOTUtkn-11" value="Function&lt;div&gt;Impending Violations&lt;/div&gt;" style="rounded=1;whiteSpace=wrap;html=1;" vertex="1" parent="1">
          <mxGeometry x="320" y="280" width="120" height="60" as="geometry" />
        </mxCell>
        <mxCell id="4Vm4h1DBtU_fKJOTUtkn-12" value="Function&lt;div&gt;Process Vehicle Config&lt;/div&gt;" style="rounded=1;whiteSpace=wrap;html=1;" vertex="1" parent="1">
          <mxGeometry x="180" y="280" width="120" height="60" as="geometry" />
        </mxCell>
      </root>
    </mxGraphModel>
  </diagram>
</mxfile>
